<mxfile host="app.diagrams.net" modified="2024-05-27T14:12:43.291Z" agent="Mozilla/5.0 (Windows NT 10.0; Win64; x64) AppleWebKit/537.36 (KHTML, like Gecko) Chrome/125.0.0.0 Safari/537.36" etag="soulccUp-sOl-9iSSolL" version="24.4.9" type="google">
  <diagram name="Página-1" id="WGzU1PvO3Z0RvBQjWcdS">
    <mxGraphModel grid="1" page="1" gridSize="10" guides="1" tooltips="1" connect="1" arrows="1" fold="1" pageScale="1" pageWidth="827" pageHeight="1169" math="0" shadow="0">
      <root>
        <mxCell id="0" />
        <mxCell id="1" parent="0" />
        <mxCell id="XrsSEh4Q-7qCyRReq4UZ-9" value="Usuario" style="shape=umlActor;verticalLabelPosition=bottom;verticalAlign=top;html=1;outlineConnect=0;" vertex="1" parent="1">
          <mxGeometry x="300" y="1220" width="50" height="100" as="geometry" />
        </mxCell>
        <mxCell id="XrsSEh4Q-7qCyRReq4UZ-29" value="Iniciar sesion" style="ellipse;whiteSpace=wrap;html=1;" vertex="1" parent="1">
          <mxGeometry x="440" y="1220" width="110" height="60" as="geometry" />
        </mxCell>
        <mxCell id="XrsSEh4Q-7qCyRReq4UZ-33" value="Compra subscripciones" style="ellipse;whiteSpace=wrap;html=1;" vertex="1" parent="1">
          <mxGeometry x="420" y="1690" width="110" height="60" as="geometry" />
        </mxCell>
        <mxCell id="wB2XYLqNyKFtM_GHxAxh-3" value="" style="endArrow=none;html=1;rounded=0;entryX=0;entryY=0.5;entryDx=0;entryDy=0;" edge="1" parent="1" source="XrsSEh4Q-7qCyRReq4UZ-9" target="XrsSEh4Q-7qCyRReq4UZ-29">
          <mxGeometry width="50" height="50" relative="1" as="geometry">
            <mxPoint x="630" y="1220" as="sourcePoint" />
            <mxPoint x="680" y="1170" as="targetPoint" />
          </mxGeometry>
        </mxCell>
        <mxCell id="wB2XYLqNyKFtM_GHxAxh-4" value="Verificar usuario" style="ellipse;whiteSpace=wrap;html=1;" vertex="1" parent="1">
          <mxGeometry x="560" y="1310" width="110" height="60" as="geometry" />
        </mxCell>
        <mxCell id="wB2XYLqNyKFtM_GHxAxh-5" value="" style="endArrow=none;html=1;rounded=0;dashed=1;" edge="1" parent="1" source="wB2XYLqNyKFtM_GHxAxh-4" target="XrsSEh4Q-7qCyRReq4UZ-29">
          <mxGeometry width="50" height="50" relative="1" as="geometry">
            <mxPoint x="370" y="1268" as="sourcePoint" />
            <mxPoint x="450" y="1230" as="targetPoint" />
          </mxGeometry>
        </mxCell>
        <mxCell id="wB2XYLqNyKFtM_GHxAxh-6" value="Incluye" style="edgeLabel;html=1;align=center;verticalAlign=middle;resizable=0;points=[];" connectable="0" vertex="1" parent="wB2XYLqNyKFtM_GHxAxh-5">
          <mxGeometry x="-0.1132" y="1" relative="1" as="geometry">
            <mxPoint as="offset" />
          </mxGeometry>
        </mxCell>
        <mxCell id="wB2XYLqNyKFtM_GHxAxh-7" value="Compara datos" style="ellipse;whiteSpace=wrap;html=1;" vertex="1" parent="1">
          <mxGeometry x="970" y="1310" width="110" height="60" as="geometry" />
        </mxCell>
        <mxCell id="wB2XYLqNyKFtM_GHxAxh-8" value="Envía datos" style="ellipse;whiteSpace=wrap;html=1;" vertex="1" parent="1">
          <mxGeometry x="780" y="1310" width="110" height="60" as="geometry" />
        </mxCell>
        <mxCell id="wB2XYLqNyKFtM_GHxAxh-9" value="BD&lt;div&gt;(Base de Datos)&lt;/div&gt;" style="shape=umlActor;verticalLabelPosition=bottom;verticalAlign=top;html=1;outlineConnect=0;" vertex="1" parent="1">
          <mxGeometry x="1120" y="1089" width="50" height="100" as="geometry" />
        </mxCell>
        <mxCell id="wB2XYLqNyKFtM_GHxAxh-10" value="" style="endArrow=none;html=1;rounded=0;dashed=1;" edge="1" parent="1" source="wB2XYLqNyKFtM_GHxAxh-4" target="wB2XYLqNyKFtM_GHxAxh-8">
          <mxGeometry width="50" height="50" relative="1" as="geometry">
            <mxPoint x="730" y="1360" as="sourcePoint" />
            <mxPoint x="780" y="1310" as="targetPoint" />
          </mxGeometry>
        </mxCell>
        <mxCell id="wB2XYLqNyKFtM_GHxAxh-11" value="Extiende" style="edgeLabel;html=1;align=center;verticalAlign=middle;resizable=0;points=[];" connectable="0" vertex="1" parent="wB2XYLqNyKFtM_GHxAxh-10">
          <mxGeometry x="-0.0222" y="1" relative="1" as="geometry">
            <mxPoint as="offset" />
          </mxGeometry>
        </mxCell>
        <mxCell id="wB2XYLqNyKFtM_GHxAxh-19" value="" style="endArrow=none;html=1;rounded=0;" edge="1" parent="1" source="wB2XYLqNyKFtM_GHxAxh-9" target="wB2XYLqNyKFtM_GHxAxh-7">
          <mxGeometry width="50" height="50" relative="1" as="geometry">
            <mxPoint x="630" y="1260" as="sourcePoint" />
            <mxPoint x="680" y="1210" as="targetPoint" />
          </mxGeometry>
        </mxCell>
        <mxCell id="wB2XYLqNyKFtM_GHxAxh-21" value="Verificación correcta" style="ellipse;whiteSpace=wrap;html=1;" vertex="1" parent="1">
          <mxGeometry x="1160" y="1260" width="110" height="60" as="geometry" />
        </mxCell>
        <mxCell id="wB2XYLqNyKFtM_GHxAxh-22" value="Error de verificación" style="ellipse;whiteSpace=wrap;html=1;" vertex="1" parent="1">
          <mxGeometry x="1160" y="1370" width="110" height="60" as="geometry" />
        </mxCell>
        <mxCell id="wB2XYLqNyKFtM_GHxAxh-26" value="" style="endArrow=none;dashed=1;html=1;rounded=0;" edge="1" parent="1" source="wB2XYLqNyKFtM_GHxAxh-7" target="wB2XYLqNyKFtM_GHxAxh-21">
          <mxGeometry width="50" height="50" relative="1" as="geometry">
            <mxPoint x="950" y="1310" as="sourcePoint" />
            <mxPoint x="1000" y="1260" as="targetPoint" />
          </mxGeometry>
        </mxCell>
        <mxCell id="wB2XYLqNyKFtM_GHxAxh-28" value="Extiende" style="edgeLabel;html=1;align=center;verticalAlign=middle;resizable=0;points=[];" connectable="0" vertex="1" parent="wB2XYLqNyKFtM_GHxAxh-26">
          <mxGeometry x="-0.1224" y="4" relative="1" as="geometry">
            <mxPoint x="1" as="offset" />
          </mxGeometry>
        </mxCell>
        <mxCell id="wB2XYLqNyKFtM_GHxAxh-27" value="" style="endArrow=none;dashed=1;html=1;rounded=0;" edge="1" parent="1" source="wB2XYLqNyKFtM_GHxAxh-7" target="wB2XYLqNyKFtM_GHxAxh-22">
          <mxGeometry width="50" height="50" relative="1" as="geometry">
            <mxPoint x="950" y="1310" as="sourcePoint" />
            <mxPoint x="1000" y="1260" as="targetPoint" />
          </mxGeometry>
        </mxCell>
        <mxCell id="wB2XYLqNyKFtM_GHxAxh-29" value="Extiende" style="edgeLabel;html=1;align=center;verticalAlign=middle;resizable=0;points=[];" connectable="0" vertex="1" parent="wB2XYLqNyKFtM_GHxAxh-27">
          <mxGeometry x="-0.172" y="4" relative="1" as="geometry">
            <mxPoint x="-1" as="offset" />
          </mxGeometry>
        </mxCell>
        <mxCell id="wB2XYLqNyKFtM_GHxAxh-31" value="Compra comics" style="ellipse;whiteSpace=wrap;html=1;" vertex="1" parent="1">
          <mxGeometry x="440" y="1430" width="110" height="60" as="geometry" />
        </mxCell>
        <mxCell id="wB2XYLqNyKFtM_GHxAxh-33" value="" style="endArrow=none;html=1;rounded=0;" edge="1" parent="1" source="XrsSEh4Q-7qCyRReq4UZ-9" target="wB2XYLqNyKFtM_GHxAxh-31">
          <mxGeometry width="50" height="50" relative="1" as="geometry">
            <mxPoint x="340" y="1380" as="sourcePoint" />
            <mxPoint x="390" y="1330" as="targetPoint" />
          </mxGeometry>
        </mxCell>
        <mxCell id="wB2XYLqNyKFtM_GHxAxh-34" value="" style="endArrow=none;dashed=1;html=1;rounded=0;" edge="1" parent="1" source="XrsSEh4Q-7qCyRReq4UZ-29" target="wB2XYLqNyKFtM_GHxAxh-31">
          <mxGeometry width="50" height="50" relative="1" as="geometry">
            <mxPoint x="340" y="1380" as="sourcePoint" />
            <mxPoint x="390" y="1330" as="targetPoint" />
          </mxGeometry>
        </mxCell>
        <mxCell id="wB2XYLqNyKFtM_GHxAxh-35" value="Incluye" style="edgeLabel;html=1;align=center;verticalAlign=middle;resizable=0;points=[];" connectable="0" vertex="1" parent="wB2XYLqNyKFtM_GHxAxh-34">
          <mxGeometry x="-0.1175" y="-1" relative="1" as="geometry">
            <mxPoint y="1" as="offset" />
          </mxGeometry>
        </mxCell>
        <mxCell id="wB2XYLqNyKFtM_GHxAxh-36" value="Elegir comic" style="ellipse;whiteSpace=wrap;html=1;" vertex="1" parent="1">
          <mxGeometry x="490" y="1590" width="110" height="60" as="geometry" />
        </mxCell>
        <mxCell id="wB2XYLqNyKFtM_GHxAxh-37" value="Compra directa&amp;nbsp;" style="ellipse;whiteSpace=wrap;html=1;" vertex="1" parent="1">
          <mxGeometry x="700" y="1590" width="110" height="60" as="geometry" />
        </mxCell>
        <mxCell id="wB2XYLqNyKFtM_GHxAxh-38" value="Agregar al carrito" style="ellipse;whiteSpace=wrap;html=1;" vertex="1" parent="1">
          <mxGeometry x="700" y="1470" width="110" height="60" as="geometry" />
        </mxCell>
        <mxCell id="wB2XYLqNyKFtM_GHxAxh-39" value="" style="endArrow=none;dashed=1;html=1;rounded=0;" edge="1" parent="1" source="wB2XYLqNyKFtM_GHxAxh-31" target="wB2XYLqNyKFtM_GHxAxh-36">
          <mxGeometry width="50" height="50" relative="1" as="geometry">
            <mxPoint x="520" y="1520" as="sourcePoint" />
            <mxPoint x="570" y="1470" as="targetPoint" />
          </mxGeometry>
        </mxCell>
        <mxCell id="wB2XYLqNyKFtM_GHxAxh-41" value="Incluye" style="edgeLabel;html=1;align=center;verticalAlign=middle;resizable=0;points=[];" connectable="0" vertex="1" parent="wB2XYLqNyKFtM_GHxAxh-39">
          <mxGeometry x="-0.0826" relative="1" as="geometry">
            <mxPoint as="offset" />
          </mxGeometry>
        </mxCell>
        <mxCell id="wB2XYLqNyKFtM_GHxAxh-50" value="Extiende = condicion" style="text;html=1;align=center;verticalAlign=middle;whiteSpace=wrap;rounded=0;" vertex="1" parent="1">
          <mxGeometry x="-50" y="1240" width="130" height="50" as="geometry" />
        </mxCell>
        <mxCell id="wB2XYLqNyKFtM_GHxAxh-52" value="" style="endArrow=none;html=1;rounded=0;" edge="1" parent="1" target="XrsSEh4Q-7qCyRReq4UZ-33">
          <mxGeometry width="50" height="50" relative="1" as="geometry">
            <mxPoint x="330" y="1350" as="sourcePoint" />
            <mxPoint x="810" y="1440" as="targetPoint" />
            <Array as="points">
              <mxPoint x="340" y="1560" />
            </Array>
          </mxGeometry>
        </mxCell>
        <mxCell id="wB2XYLqNyKFtM_GHxAxh-53" value="Pagar" style="ellipse;whiteSpace=wrap;html=1;" vertex="1" parent="1">
          <mxGeometry x="940" y="1590" width="110" height="60" as="geometry" />
        </mxCell>
        <mxCell id="wB2XYLqNyKFtM_GHxAxh-56" value="Elegir método" style="ellipse;whiteSpace=wrap;html=1;" vertex="1" parent="1">
          <mxGeometry x="1070" y="1500" width="110" height="60" as="geometry" />
        </mxCell>
        <mxCell id="wB2XYLqNyKFtM_GHxAxh-57" value="" style="endArrow=none;dashed=1;html=1;rounded=0;" edge="1" parent="1" source="wB2XYLqNyKFtM_GHxAxh-53" target="wB2XYLqNyKFtM_GHxAxh-56">
          <mxGeometry width="50" height="50" relative="1" as="geometry">
            <mxPoint x="770" y="1600" as="sourcePoint" />
            <mxPoint x="820" y="1550" as="targetPoint" />
          </mxGeometry>
        </mxCell>
        <mxCell id="wB2XYLqNyKFtM_GHxAxh-58" value="Incluye" style="edgeLabel;html=1;align=center;verticalAlign=middle;resizable=0;points=[];" connectable="0" vertex="1" parent="wB2XYLqNyKFtM_GHxAxh-57">
          <mxGeometry x="-0.1078" y="-1" relative="1" as="geometry">
            <mxPoint as="offset" />
          </mxGeometry>
        </mxCell>
        <mxCell id="wB2XYLqNyKFtM_GHxAxh-59" value="" style="endArrow=none;html=1;rounded=0;" edge="1" parent="1" source="XrsSEh4Q-7qCyRReq4UZ-33" target="wB2XYLqNyKFtM_GHxAxh-53">
          <mxGeometry width="50" height="50" relative="1" as="geometry">
            <mxPoint x="740" y="1650" as="sourcePoint" />
            <mxPoint x="790" y="1600" as="targetPoint" />
            <Array as="points">
              <mxPoint x="870" y="1720" />
            </Array>
          </mxGeometry>
        </mxCell>
        <mxCell id="wB2XYLqNyKFtM_GHxAxh-60" value="Elegir plan" style="ellipse;whiteSpace=wrap;html=1;" vertex="1" parent="1">
          <mxGeometry x="560" y="1770" width="110" height="60" as="geometry" />
        </mxCell>
        <mxCell id="wB2XYLqNyKFtM_GHxAxh-61" value="" style="endArrow=none;dashed=1;html=1;rounded=0;" edge="1" parent="1" source="XrsSEh4Q-7qCyRReq4UZ-33" target="wB2XYLqNyKFtM_GHxAxh-60">
          <mxGeometry width="50" height="50" relative="1" as="geometry">
            <mxPoint x="740" y="1650" as="sourcePoint" />
            <mxPoint x="790" y="1600" as="targetPoint" />
          </mxGeometry>
        </mxCell>
        <mxCell id="wB2XYLqNyKFtM_GHxAxh-62" value="Incluye" style="edgeLabel;html=1;align=center;verticalAlign=middle;resizable=0;points=[];" connectable="0" vertex="1" parent="wB2XYLqNyKFtM_GHxAxh-61">
          <mxGeometry x="-0.1028" y="3" relative="1" as="geometry">
            <mxPoint x="1" as="offset" />
          </mxGeometry>
        </mxCell>
        <mxCell id="wB2XYLqNyKFtM_GHxAxh-63" value="Cerrar sesión" style="ellipse;whiteSpace=wrap;html=1;" vertex="1" parent="1">
          <mxGeometry x="590" y="1129" width="110" height="60" as="geometry" />
        </mxCell>
        <mxCell id="wB2XYLqNyKFtM_GHxAxh-64" value="" style="endArrow=none;dashed=1;html=1;rounded=0;" edge="1" parent="1" source="XrsSEh4Q-7qCyRReq4UZ-29" target="wB2XYLqNyKFtM_GHxAxh-63">
          <mxGeometry width="50" height="50" relative="1" as="geometry">
            <mxPoint x="600" y="1280" as="sourcePoint" />
            <mxPoint x="650" y="1230" as="targetPoint" />
          </mxGeometry>
        </mxCell>
        <mxCell id="wB2XYLqNyKFtM_GHxAxh-65" value="Extiende" style="edgeLabel;html=1;align=center;verticalAlign=middle;resizable=0;points=[];" connectable="0" vertex="1" parent="wB2XYLqNyKFtM_GHxAxh-64">
          <mxGeometry x="0.1299" relative="1" as="geometry">
            <mxPoint as="offset" />
          </mxGeometry>
        </mxCell>
        <mxCell id="wB2XYLqNyKFtM_GHxAxh-72" value="Registro" style="ellipse;whiteSpace=wrap;html=1;" vertex="1" parent="1">
          <mxGeometry x="440" y="1040" width="110" height="60" as="geometry" />
        </mxCell>
        <mxCell id="wB2XYLqNyKFtM_GHxAxh-73" value="" style="endArrow=none;html=1;rounded=0;" edge="1" parent="1" source="XrsSEh4Q-7qCyRReq4UZ-9" target="wB2XYLqNyKFtM_GHxAxh-72">
          <mxGeometry width="50" height="50" relative="1" as="geometry">
            <mxPoint x="650" y="1330" as="sourcePoint" />
            <mxPoint x="700" y="1280" as="targetPoint" />
          </mxGeometry>
        </mxCell>
        <mxCell id="wB2XYLqNyKFtM_GHxAxh-77" value="Guarda datos" style="ellipse;whiteSpace=wrap;html=1;" vertex="1" parent="1">
          <mxGeometry x="840" y="1040" width="110" height="60" as="geometry" />
        </mxCell>
        <mxCell id="wB2XYLqNyKFtM_GHxAxh-78" value="" style="endArrow=none;html=1;rounded=0;" edge="1" parent="1" source="wB2XYLqNyKFtM_GHxAxh-77" target="wB2XYLqNyKFtM_GHxAxh-9">
          <mxGeometry width="50" height="50" relative="1" as="geometry">
            <mxPoint x="730" y="1210" as="sourcePoint" />
            <mxPoint x="780" y="1160" as="targetPoint" />
          </mxGeometry>
        </mxCell>
        <mxCell id="wB2XYLqNyKFtM_GHxAxh-79" value="Llenar los datos" style="ellipse;whiteSpace=wrap;html=1;" vertex="1" parent="1">
          <mxGeometry x="540" y="940" width="110" height="60" as="geometry" />
        </mxCell>
        <mxCell id="wB2XYLqNyKFtM_GHxAxh-80" value="" style="endArrow=none;dashed=1;html=1;rounded=0;" edge="1" parent="1" source="wB2XYLqNyKFtM_GHxAxh-72" target="wB2XYLqNyKFtM_GHxAxh-79">
          <mxGeometry width="50" height="50" relative="1" as="geometry">
            <mxPoint x="660" y="1210" as="sourcePoint" />
            <mxPoint x="710" y="1160" as="targetPoint" />
          </mxGeometry>
        </mxCell>
        <mxCell id="wB2XYLqNyKFtM_GHxAxh-81" value="Incluye" style="edgeLabel;html=1;align=center;verticalAlign=middle;resizable=0;points=[];" connectable="0" vertex="1" parent="wB2XYLqNyKFtM_GHxAxh-80">
          <mxGeometry x="-0.0373" y="2" relative="1" as="geometry">
            <mxPoint as="offset" />
          </mxGeometry>
        </mxCell>
        <mxCell id="wB2XYLqNyKFtM_GHxAxh-83" value="Envía datos" style="ellipse;whiteSpace=wrap;html=1;" vertex="1" parent="1">
          <mxGeometry x="640" y="1040" width="110" height="60" as="geometry" />
        </mxCell>
        <mxCell id="wB2XYLqNyKFtM_GHxAxh-86" value="" style="endArrow=classic;html=1;rounded=0;" edge="1" parent="1" source="wB2XYLqNyKFtM_GHxAxh-72" target="wB2XYLqNyKFtM_GHxAxh-83">
          <mxGeometry width="50" height="50" relative="1" as="geometry">
            <mxPoint x="520" y="1120" as="sourcePoint" />
            <mxPoint x="570" y="1070" as="targetPoint" />
          </mxGeometry>
        </mxCell>
        <mxCell id="wB2XYLqNyKFtM_GHxAxh-87" value="" style="endArrow=classic;html=1;rounded=0;" edge="1" parent="1" source="wB2XYLqNyKFtM_GHxAxh-83" target="wB2XYLqNyKFtM_GHxAxh-77">
          <mxGeometry width="50" height="50" relative="1" as="geometry">
            <mxPoint x="790" y="1220" as="sourcePoint" />
            <mxPoint x="840" y="1170" as="targetPoint" />
          </mxGeometry>
        </mxCell>
        <mxCell id="wB2XYLqNyKFtM_GHxAxh-89" value="" style="endArrow=classic;html=1;rounded=0;" edge="1" parent="1" source="wB2XYLqNyKFtM_GHxAxh-8" target="wB2XYLqNyKFtM_GHxAxh-7">
          <mxGeometry width="50" height="50" relative="1" as="geometry">
            <mxPoint x="790" y="1220" as="sourcePoint" />
            <mxPoint x="840" y="1170" as="targetPoint" />
          </mxGeometry>
        </mxCell>
        <mxCell id="wB2XYLqNyKFtM_GHxAxh-90" value="" style="endArrow=classic;html=1;rounded=0;" edge="1" parent="1" source="wB2XYLqNyKFtM_GHxAxh-37" target="wB2XYLqNyKFtM_GHxAxh-53">
          <mxGeometry width="50" height="50" relative="1" as="geometry">
            <mxPoint x="790" y="1670" as="sourcePoint" />
            <mxPoint x="840" y="1620" as="targetPoint" />
          </mxGeometry>
        </mxCell>
        <mxCell id="wB2XYLqNyKFtM_GHxAxh-92" value="Incluye" style="endArrow=none;dashed=1;html=1;rounded=0;" edge="1" parent="1" source="wB2XYLqNyKFtM_GHxAxh-36" target="wB2XYLqNyKFtM_GHxAxh-37">
          <mxGeometry width="50" height="50" relative="1" as="geometry">
            <mxPoint x="570" y="1670" as="sourcePoint" />
            <mxPoint x="620" y="1620" as="targetPoint" />
          </mxGeometry>
        </mxCell>
        <mxCell id="wB2XYLqNyKFtM_GHxAxh-93" value="Extiende" style="endArrow=none;dashed=1;html=1;rounded=0;" edge="1" parent="1" source="wB2XYLqNyKFtM_GHxAxh-38" target="wB2XYLqNyKFtM_GHxAxh-37">
          <mxGeometry width="50" height="50" relative="1" as="geometry">
            <mxPoint x="610" y="1570" as="sourcePoint" />
            <mxPoint x="720" y="1576" as="targetPoint" />
          </mxGeometry>
        </mxCell>
        <mxCell id="wB2XYLqNyKFtM_GHxAxh-94" value="" style="endArrow=none;dashed=1;html=1;rounded=0;" edge="1" parent="1" source="XrsSEh4Q-7qCyRReq4UZ-33" target="XrsSEh4Q-7qCyRReq4UZ-29">
          <mxGeometry width="50" height="50" relative="1" as="geometry">
            <mxPoint x="360" y="1720" as="sourcePoint" />
            <mxPoint x="415.51751155647526" y="1278.0547833586747" as="targetPoint" />
            <Array as="points">
              <mxPoint x="290" y="1720" />
              <mxPoint x="290" y="1430" />
            </Array>
          </mxGeometry>
        </mxCell>
        <mxCell id="wB2XYLqNyKFtM_GHxAxh-95" value="Incluye" style="edgeLabel;html=1;align=center;verticalAlign=middle;resizable=0;points=[];" connectable="0" vertex="1" parent="wB2XYLqNyKFtM_GHxAxh-94">
          <mxGeometry x="-0.0894" relative="1" as="geometry">
            <mxPoint as="offset" />
          </mxGeometry>
        </mxCell>
        <mxCell id="wB2XYLqNyKFtM_GHxAxh-97" value="Administrador" style="shape=umlActor;verticalLabelPosition=bottom;verticalAlign=top;html=1;outlineConnect=0;" vertex="1" parent="1">
          <mxGeometry x="140" y="850" width="50" height="100" as="geometry" />
        </mxCell>
        <mxCell id="wB2XYLqNyKFtM_GHxAxh-98" value="Incluye = forzado a hacerlo" style="text;html=1;align=center;verticalAlign=middle;whiteSpace=wrap;rounded=0;" vertex="1" parent="1">
          <mxGeometry x="-46" y="1270" width="160" height="50" as="geometry" />
        </mxCell>
        <mxCell id="wB2XYLqNyKFtM_GHxAxh-99" value="Validación de admin&amp;nbsp;" style="ellipse;whiteSpace=wrap;html=1;" vertex="1" parent="1">
          <mxGeometry x="260" y="1040" width="110" height="60" as="geometry" />
        </mxCell>
        <mxCell id="wB2XYLqNyKFtM_GHxAxh-100" value="" style="endArrow=none;dashed=1;html=1;rounded=0;" edge="1" parent="1" source="wB2XYLqNyKFtM_GHxAxh-99" target="XrsSEh4Q-7qCyRReq4UZ-29">
          <mxGeometry width="50" height="50" relative="1" as="geometry">
            <mxPoint x="450" y="1250" as="sourcePoint" />
            <mxPoint x="500" y="1200" as="targetPoint" />
          </mxGeometry>
        </mxCell>
        <mxCell id="wB2XYLqNyKFtM_GHxAxh-101" value="Extiende" style="edgeLabel;html=1;align=center;verticalAlign=middle;resizable=0;points=[];" connectable="0" vertex="1" parent="wB2XYLqNyKFtM_GHxAxh-100">
          <mxGeometry x="0.3784" y="2" relative="1" as="geometry">
            <mxPoint as="offset" />
          </mxGeometry>
        </mxCell>
        <mxCell id="wB2XYLqNyKFtM_GHxAxh-102" value="Cargar comics" style="ellipse;whiteSpace=wrap;html=1;" vertex="1" parent="1">
          <mxGeometry x="280" y="920" width="110" height="60" as="geometry" />
        </mxCell>
        <mxCell id="wB2XYLqNyKFtM_GHxAxh-103" value="" style="endArrow=none;html=1;rounded=0;" edge="1" parent="1" source="wB2XYLqNyKFtM_GHxAxh-99" target="wB2XYLqNyKFtM_GHxAxh-97">
          <mxGeometry width="50" height="50" relative="1" as="geometry">
            <mxPoint x="330" y="1010" as="sourcePoint" />
            <mxPoint x="380" y="960" as="targetPoint" />
          </mxGeometry>
        </mxCell>
        <mxCell id="wB2XYLqNyKFtM_GHxAxh-104" value="" style="endArrow=none;html=1;rounded=0;" edge="1" parent="1" source="wB2XYLqNyKFtM_GHxAxh-97" target="wB2XYLqNyKFtM_GHxAxh-102">
          <mxGeometry width="50" height="50" relative="1" as="geometry">
            <mxPoint x="290" y="1000" as="sourcePoint" />
            <mxPoint x="340" y="950" as="targetPoint" />
          </mxGeometry>
        </mxCell>
        <mxCell id="wB2XYLqNyKFtM_GHxAxh-105" value="" style="endArrow=none;dashed=1;html=1;rounded=0;" edge="1" parent="1" source="wB2XYLqNyKFtM_GHxAxh-99" target="wB2XYLqNyKFtM_GHxAxh-102">
          <mxGeometry width="50" height="50" relative="1" as="geometry">
            <mxPoint x="290" y="1000" as="sourcePoint" />
            <mxPoint x="340" y="950" as="targetPoint" />
          </mxGeometry>
        </mxCell>
        <mxCell id="wB2XYLqNyKFtM_GHxAxh-109" value="Incluye" style="edgeLabel;html=1;align=center;verticalAlign=middle;resizable=0;points=[];" connectable="0" vertex="1" parent="wB2XYLqNyKFtM_GHxAxh-105">
          <mxGeometry x="0.0329" y="-1" relative="1" as="geometry">
            <mxPoint as="offset" />
          </mxGeometry>
        </mxCell>
        <mxCell id="wB2XYLqNyKFtM_GHxAxh-106" value="Borrar comics" style="ellipse;whiteSpace=wrap;html=1;" vertex="1" parent="1">
          <mxGeometry x="310" y="780" width="110" height="60" as="geometry" />
        </mxCell>
        <mxCell id="wB2XYLqNyKFtM_GHxAxh-107" value="Editar comics" style="ellipse;whiteSpace=wrap;html=1;" vertex="1" parent="1">
          <mxGeometry x="330" y="850" width="110" height="60" as="geometry" />
        </mxCell>
        <mxCell id="wB2XYLqNyKFtM_GHxAxh-108" value="Administrar Usuarios" style="ellipse;whiteSpace=wrap;html=1;" vertex="1" parent="1">
          <mxGeometry x="270" y="650" width="110" height="60" as="geometry" />
        </mxCell>
        <mxCell id="wB2XYLqNyKFtM_GHxAxh-115" value="" style="endArrow=none;html=1;rounded=0;" edge="1" parent="1" source="wB2XYLqNyKFtM_GHxAxh-97" target="wB2XYLqNyKFtM_GHxAxh-108">
          <mxGeometry width="50" height="50" relative="1" as="geometry">
            <mxPoint x="230" y="970" as="sourcePoint" />
            <mxPoint x="280" y="920" as="targetPoint" />
          </mxGeometry>
        </mxCell>
        <mxCell id="wB2XYLqNyKFtM_GHxAxh-116" value="" style="endArrow=none;dashed=1;html=1;rounded=0;" edge="1" parent="1" source="wB2XYLqNyKFtM_GHxAxh-99" target="wB2XYLqNyKFtM_GHxAxh-108">
          <mxGeometry width="50" height="50" relative="1" as="geometry">
            <mxPoint x="240" y="870" as="sourcePoint" />
            <mxPoint x="290" y="820" as="targetPoint" />
            <Array as="points">
              <mxPoint x="610" y="890" />
              <mxPoint x="610" y="820" />
              <mxPoint x="610" y="680" />
            </Array>
          </mxGeometry>
        </mxCell>
        <mxCell id="wB2XYLqNyKFtM_GHxAxh-117" value="Incluye" style="edgeLabel;html=1;align=center;verticalAlign=middle;resizable=0;points=[];" connectable="0" vertex="1" parent="wB2XYLqNyKFtM_GHxAxh-116">
          <mxGeometry x="-0.6926" y="2" relative="1" as="geometry">
            <mxPoint as="offset" />
          </mxGeometry>
        </mxCell>
        <mxCell id="wB2XYLqNyKFtM_GHxAxh-118" value="" style="endArrow=none;html=1;rounded=0;" edge="1" parent="1" source="wB2XYLqNyKFtM_GHxAxh-97" target="wB2XYLqNyKFtM_GHxAxh-107">
          <mxGeometry width="50" height="50" relative="1" as="geometry">
            <mxPoint x="370" y="890" as="sourcePoint" />
            <mxPoint x="420" y="840" as="targetPoint" />
          </mxGeometry>
        </mxCell>
        <mxCell id="wB2XYLqNyKFtM_GHxAxh-119" value="" style="endArrow=none;html=1;rounded=0;" edge="1" parent="1" source="wB2XYLqNyKFtM_GHxAxh-97" target="wB2XYLqNyKFtM_GHxAxh-106">
          <mxGeometry width="50" height="50" relative="1" as="geometry">
            <mxPoint x="370" y="890" as="sourcePoint" />
            <mxPoint x="420" y="840" as="targetPoint" />
          </mxGeometry>
        </mxCell>
        <mxCell id="wB2XYLqNyKFtM_GHxAxh-120" value="" style="endArrow=none;dashed=1;html=1;rounded=0;" edge="1" parent="1" source="wB2XYLqNyKFtM_GHxAxh-99" target="wB2XYLqNyKFtM_GHxAxh-107">
          <mxGeometry width="50" height="50" relative="1" as="geometry">
            <mxPoint x="350" y="1010" as="sourcePoint" />
            <mxPoint x="400" y="960" as="targetPoint" />
            <Array as="points">
              <mxPoint x="410" y="980" />
              <mxPoint x="410" y="920" />
            </Array>
          </mxGeometry>
        </mxCell>
        <mxCell id="wB2XYLqNyKFtM_GHxAxh-121" value="Incluye" style="edgeLabel;html=1;align=center;verticalAlign=middle;resizable=0;points=[];" connectable="0" vertex="1" parent="wB2XYLqNyKFtM_GHxAxh-120">
          <mxGeometry x="0.536" y="-2" relative="1" as="geometry">
            <mxPoint as="offset" />
          </mxGeometry>
        </mxCell>
        <mxCell id="wB2XYLqNyKFtM_GHxAxh-122" value="" style="endArrow=none;dashed=1;html=1;rounded=0;" edge="1" parent="1" source="wB2XYLqNyKFtM_GHxAxh-99" target="wB2XYLqNyKFtM_GHxAxh-106">
          <mxGeometry width="50" height="50" relative="1" as="geometry">
            <mxPoint x="350" y="1010" as="sourcePoint" />
            <mxPoint x="500" y="1000" as="targetPoint" />
            <Array as="points">
              <mxPoint x="500" y="990" />
              <mxPoint x="500" y="810" />
            </Array>
          </mxGeometry>
        </mxCell>
        <mxCell id="wB2XYLqNyKFtM_GHxAxh-123" value="Incluye" style="edgeLabel;html=1;align=center;verticalAlign=middle;resizable=0;points=[];" connectable="0" vertex="1" parent="wB2XYLqNyKFtM_GHxAxh-122">
          <mxGeometry x="0.1606" y="-1" relative="1" as="geometry">
            <mxPoint as="offset" />
          </mxGeometry>
        </mxCell>
      </root>
    </mxGraphModel>
  </diagram>
</mxfile>
